PathFileType	4	(X/Y/Z)	s11c0103.trc
DataRate	CameraRate	NumFrames	NumMarkers	Units	OrigDataRate	OrigDataStartFrame	OrigNumFrames
200	200	4	48	mm	200	1500	2000
Frame#	Time	racr			lacr			c7			jug			rlel			rdr			llel			ldr			s2			lic			ric			lasi			rasi			rpsi			lpsi			rgt			lgt			rth1			rth2			rth3			rth4			rlfc			rmfc			rsh1			rsh2			rsh3			rsh4			rlmal			rcal			rtoe			rmt5			lth1			lth2			lth4			lth3			llfc			lmfc			llmal			lcal			lmt5			lsh1			lsh2			lsh3			lsh4			ltoe			SBIKE			LBIKE			RBIKE			
		X1	Y1	Z1	X2	Y2	Z2	X3	Y3	Z3	X4	Y4	Z4	X5	Y5	Z5	X6	Y6	Z6	X7	Y7	Z7	X8	Y8	Z8	X9	Y9	Z9	X10	Y10	Z10	X11	Y11	Z11	X12	Y12	Z12	X13	Y13	Z13	X14	Y14	Z14	X15	Y15	Z15	X16	Y16	Z16	X17	Y17	Z17	X18	Y18	Z18	X19	Y19	Z19	X20	Y20	Z20	X21	Y21	Z21	X22	Y22	Z22	X23	Y23	Z23	X24	Y24	Z24	X25	Y25	Z25	X26	Y26	Z26	X27	Y27	Z27	X28	Y28	Z28	X29	Y29	Z29	X30	Y30	Z30	X31	Y31	Z31	X32	Y32	Z32	X33	Y33	Z33	X34	Y34	Z34	X35	Y35	Z35	X36	Y36	Z36	X37	Y37	Z37	X38	Y38	Z38	X39	Y39	Z39	X40	Y40	Z40	X41	Y41	Z41	X42	Y42	Z42	X43	Y43	Z43	X44	Y44	Z44	X45	Y45	Z45	X46	Y46	Z46	X47	Y47	Z47	X48	Y48	Z48	
1500	7.5000	508.801427	1375.007336	-82.203439	526.035994	1392.591440	-341.058167	461.815812	1455.377667	-222.261861	460.759829	1262.358723	-234.878616	573.922670	1132.826200	49.044209	772.343485	939.190484	-62.933407	598.665122	1170.476402	-536.051559	783.335064	917.394792	-455.731097	-106.568718	1211.480106	-297.129500	130.308781	1221.358858	-472.928902	78.488438	1251.598259	-74.635999	157.789607	1157.931476	-438.117366	108.480556	1196.881296	-116.694106	-79.988089	1295.002033	-251.875405	-65.501183	1282.208354	-339.592809	64.268483	1137.080400	-48.945832	20.494767	1079.676665	-484.186304	202.125108	1098.234461	-51.033834	290.645875	1102.386605	-61.096040	368.916942	1062.349360	-69.803600	297.179934	1136.411442	-76.123285	473.800505	1035.157962	-84.090759	484.655352	1014.604521	-220.261017	421.537387	890.373791	-76.926308	402.715643	805.156683	-92.828083	345.188099	739.873824	-94.119185	428.109025	796.070096	-122.325881	266.251888	618.134048	-104.647792	203.912121	631.449625	-153.488354	432.772082	457.454778	-156.813564	361.849403	472.122855	-86.158740	79.328470	947.726656	-499.777046	127.681741	878.012206	-494.149575	162.863631	889.298139	-492.954966	135.078715	789.118172	-481.348345	183.837022	660.037461	-453.169847	203.935940	654.570188	-325.641262	27.971368	251.294475	-422.746423	-24.602556	200.894510	-381.904635	179.301595	165.870939	-454.575595	134.961718	544.708091	-469.487725	129.188598	460.058718	-453.901935	80.727764	386.813977	-446.231927	159.914905	453.391671	-431.677845	273.737970	200.234398	-388.741385	-216.259956	951.046106	-259.138376	-18.098371	80.908157	-461.042874	-18.087006	81.430592	-62.307091	
1501	7.5050	509.372999	1373.315324	-82.784944	526.345261	1390.239609	-339.899908	462.750988	1453.077408	-221.635581	461.159592	1260.091710	-234.000318	574.047416	1132.120594	49.170097	772.436586	938.866360	-62.889627	597.459829	1169.457128	-536.390637	784.041232	918.720394	-457.998491	-107.487823	1213.457909	-296.438402	129.563218	1222.052847	-472.649382	77.467568	1252.900860	-74.193761	156.430004	1158.862497	-437.537220	107.047779	1196.948198	-117.445885	-80.244675	1297.434461	-251.483017	-66.141823	1284.492523	-339.116171	62.014906	1136.880027	-49.509921	19.413158	1081.273840	-484.424242	199.888558	1097.507379	-51.796636	288.601195	1100.728285	-61.505753	366.453678	1060.038938	-70.316889	295.353377	1134.596519	-76.563734	471.683196	1031.261853	-85.013276	481.431951	1011.105906	-221.448536	421.156052	885.668331	-77.307788	403.393557	800.158748	-92.882327	346.735881	734.153476	-93.728222	428.603370	791.482049	-122.232682	269.429345	610.962924	-104.299856	206.148118	621.880159	-152.411251	442.067994	457.911919	-156.748624	370.654905	469.087700	-85.918469	80.510584	949.986952	-499.799403	130.167517	881.223469	-494.794940	165.110930	893.235613	-493.904600	139.389644	792.375255	-482.803656	189.538201	663.920478	-454.757171	210.259565	658.796105	-326.918911	21.846812	260.269155	-422.285218	-31.588583	211.712414	-381.801217	170.857590	170.360658	-454.411778	137.180096	549.941968	-470.775660	129.150349	465.524623	-454.640566	78.683513	393.716785	-446.572696	159.773575	458.134921	-432.664715	266.336689	201.439122	-388.540861	-216.255676	951.044832	-259.101957	-18.123129	80.927401	-461.061460	-18.093152	81.422671	-62.299167	
1502	7.5100	509.634926	1371.153385	-83.765127	526.569361	1387.416214	-338.812142	463.657230	1450.773231	-221.252313	460.625154	1257.819574	-233.120951	574.309475	1131.295547	49.348942	772.598676	938.613326	-62.816239	595.891245	1167.882491	-536.782068	783.608574	918.838689	-458.287349	-108.286835	1215.530137	-296.003592	128.342474	1223.150662	-472.296354	76.257314	1253.960095	-73.533995	154.946367	1160.000982	-437.315697	106.274118	1197.218500	-118.428872	-80.603807	1299.876997	-250.103453	-66.779478	1286.686041	-338.454787	59.646653	1136.427967	-49.964717	18.289301	1082.765045	-484.597397	197.817810	1096.173980	-52.317534	286.478225	1098.352025	-61.962201	363.788444	1056.768445	-70.758149	293.535486	1132.099024	-77.025449	470.538238	1026.267351	-86.622515	478.179026	1006.282750	-222.572363	420.589921	879.856209	-77.458797	403.570323	794.281864	-92.708577	347.792951	727.386582	-93.313605	428.933141	785.678218	-122.129362	272.350992	602.688235	-103.571747	207.577892	611.426626	-151.532103	450.767818	458.083966	-156.674498	379.266625	465.549600	-85.254120	82.165105	952.328320	-499.748679	133.258334	884.622891	-495.306754	167.924659	897.234732	-494.426105	144.336675	795.822980	-484.216793	195.960294	668.000999	-456.397571	217.128216	663.353197	-328.831163	16.597499	270.231534	-421.666534	-38.311757	223.682840	-381.956133	162.761228	175.376833	-454.227628	140.050241	555.655528	-472.129704	129.782560	471.639551	-455.591864	77.439327	401.204730	-446.949837	160.367951	463.611112	-433.754040	259.309757	202.905101	-388.355081	-216.269366	950.988623	-258.963616	-18.115757	80.925538	-461.051100	-18.098427	81.404425	-62.287390	
1503	7.5150	510.197651	1369.090488	-84.390518	526.197206	1383.920813	-337.281268	464.418323	1448.411940	-221.070714	459.568995	1255.446714	-231.286820	574.752935	1130.389127	49.609552	772.805592	938.352072	-62.737267	594.008502	1165.988854	-537.387693	783.128683	919.001149	-458.754211	-108.983099	1217.481076	-295.520702	126.860023	1224.416888	-472.196107	74.981468	1254.934267	-72.731363	152.688691	1160.901606	-436.393403	105.138863	1197.448094	-117.783567	-79.497726	1301.644969	-250.301467	-67.558273	1288.970788	-337.610267	57.381866	1135.835401	-50.249199	17.208541	1084.178340	-484.709942	195.676116	1094.715828	-52.735084	284.272381	1095.250566	-62.447072	361.185009	1052.924596	-71.197176	291.733781	1129.016257	-77.369212	468.732334	1020.440085	-87.854821	474.559280	1000.203672	-224.141907	419.792704	872.910799	-77.485952	403.638876	787.019416	-92.433692	348.635775	719.651287	-92.732193	428.856528	778.653532	-122.119940	275.051039	593.483097	-102.731852	209.055115	599.528991	-149.559099	459.091218	457.995782	-156.157101	387.345724	461.616827	-84.484110	84.204536	954.682299	-499.652784	136.823487	888.057556	-495.759853	171.182863	901.481441	-494.630094	149.813108	799.477990	-485.558757	202.975446	672.462542	-458.078101	224.749507	667.873511	-330.804706	12.181701	281.007517	-421.431732	-44.078458	236.552142	-382.043533	155.263636	180.812402	-454.007101	143.649732	561.921908	-473.391310	131.054771	478.304469	-456.268187	76.921036	409.324771	-447.373655	161.689576	469.581750	-434.937531	252.682180	204.581014	-388.116638	-216.269218	950.962803	-258.827181	-18.117592	80.950945	-461.035873	-18.101738	81.398716	-62.283792	
